<svg width="16" height="16" viewBox="0 0 16 16" fill="none" xmlns="http://www.w3.org/2000/svg">
<g id="lock-alt">
<path id="Icon" d="M8.00033 9.66667V11M4.66699 6.68586C4.98127 6.66667 5.36872 6.66667 5.86699 6.66667H10.1337C10.6319 6.66667 11.0194 6.66667 11.3337 6.68586M4.66699 6.68586C4.27478 6.7098 3.99652 6.76364 3.75901 6.88465C3.38269 7.0764 3.07673 7.38236 2.88498 7.75869C2.66699 8.18651 2.66699 8.74656 2.66699 9.86667V10.8C2.66699 11.9201 2.66699 12.4802 2.88498 12.908C3.07673 13.2843 3.38269 13.5903 3.75901 13.782C4.18683 14 4.74689 14 5.86699 14H10.1337C11.2538 14 11.8138 14 12.2416 13.782C12.618 13.5903 12.9239 13.2843 13.1157 12.908C13.3337 12.4802 13.3337 11.9201 13.3337 10.8V9.86667C13.3337 8.74656 13.3337 8.18651 13.1157 7.75869C12.9239 7.38236 12.618 7.0764 12.2416 6.88465C12.0041 6.76364 11.7259 6.7098 11.3337 6.68586M4.66699 6.68586V5.33333C4.66699 3.49238 6.15938 2 8.00033 2C9.84127 2 11.3337 3.49238 11.3337 5.33333V6.68586" stroke="#999999" stroke-width="0.666667" stroke-linecap="round" stroke-linejoin="round"/>
</g>
</svg>
